<?xml version="1.0" encoding="UTF-8" standalone="no"?>
<!DOCTYPE svg PUBLIC "-//W3C//DTD SVG 1.1//EN"
 "http://www.w3.org/Graphics/SVG/1.1/DTD/svg11.dtd">
<!-- Generated by graphviz version 2.43.0 (0)
 -->
<!-- Title: G Pages: 1 -->
<svg width="1013pt" height="515pt"
 viewBox="0.00 0.00 1012.99 515.00" xmlns="http://www.w3.org/2000/svg" xmlns:xlink="http://www.w3.org/1999/xlink">
<g id="graph0" class="graph" transform="scale(1 1) rotate(0) translate(4 511)">
<title>G</title>
<polygon fill="white" stroke="transparent" points="-4,4 -4,-511 1008.99,-511 1008.99,4 -4,4"/>
<g id="clust1" class="cluster">
<title>cluster_legend</title>
<polygon fill="none" stroke="black" stroke-width="2" points="368.9,-424 368.9,-499 690.9,-499 690.9,-424 368.9,-424"/>
<text text-anchor="middle" x="529.9" y="-483.8" font-family="Times,serif" font-size="14.00">view_frames Result</text>
</g>
<!-- differential_drive_robot_4wheel/odom -->
<g id="node1" class="node">
<title>differential_drive_robot_4wheel/odom</title>
<ellipse fill="none" stroke="black" cx="529.9" cy="-378" rx="185.77" ry="18"/>
<text text-anchor="middle" x="529.9" y="-374.3" font-family="Times,serif" font-size="14.00">differential_drive_robot_4wheel/odom</text>
</g>
<!-- base_footprint -->
<g id="node2" class="node">
<title>base_footprint</title>
<ellipse fill="none" stroke="black" cx="529.9" cy="-306" rx="77.19" ry="18"/>
<text text-anchor="middle" x="529.9" y="-302.3" font-family="Times,serif" font-size="14.00">base_footprint</text>
</g>
<!-- differential_drive_robot_4wheel/odom&#45;&gt;base_footprint -->
<g id="edge1" class="edge">
<title>differential_drive_robot_4wheel/odom&#45;&gt;base_footprint</title>
<path fill="none" stroke="black" d="M529.9,-359.7C529.9,-351.98 529.9,-342.71 529.9,-334.11"/>
<polygon fill="black" stroke="black" points="533.4,-334.1 529.9,-324.1 526.4,-334.1 533.4,-334.1"/>
</g>
<!-- body_link -->
<g id="node3" class="node">
<title>body_link</title>
<ellipse fill="none" stroke="black" cx="529.9" cy="-234" rx="54.69" ry="18"/>
<text text-anchor="middle" x="529.9" y="-230.3" font-family="Times,serif" font-size="14.00">body_link</text>
</g>
<!-- base_footprint&#45;&gt;body_link -->
<g id="edge2" class="edge">
<title>base_footprint&#45;&gt;body_link</title>
<path fill="none" stroke="black" d="M529.9,-287.7C529.9,-279.98 529.9,-270.71 529.9,-262.11"/>
<polygon fill="black" stroke="black" points="533.4,-262.1 529.9,-252.1 526.4,-262.1 533.4,-262.1"/>
</g>
<!-- battery_link -->
<g id="node4" class="node">
<title>battery_link</title>
<ellipse fill="none" stroke="black" cx="178.9" cy="-162" rx="66.09" ry="18"/>
<text text-anchor="middle" x="178.9" y="-158.3" font-family="Times,serif" font-size="14.00">battery_link</text>
</g>
<!-- body_link&#45;&gt;battery_link -->
<g id="edge3" class="edge">
<title>body_link&#45;&gt;battery_link</title>
<path fill="none" stroke="black" d="M483.41,-224.56C428.48,-214.47 334.37,-196.84 253.9,-180 248.59,-178.89 243.07,-177.7 237.56,-176.49"/>
<polygon fill="black" stroke="black" points="238.18,-173.05 227.66,-174.3 236.67,-179.88 238.18,-173.05"/>
</g>
<!-- left_wheel2_link -->
<g id="node9" class="node">
<title>left_wheel2_link</title>
<ellipse fill="none" stroke="black" cx="347.9" cy="-162" rx="85.29" ry="18"/>
<text text-anchor="middle" x="347.9" y="-158.3" font-family="Times,serif" font-size="14.00">left_wheel2_link</text>
</g>
<!-- body_link&#45;&gt;left_wheel2_link -->
<g id="edge8" class="edge">
<title>body_link&#45;&gt;left_wheel2_link</title>
<path fill="none" stroke="black" d="M495.66,-219.83C467.67,-209.07 427.74,-193.71 396.44,-181.67"/>
<polygon fill="black" stroke="black" points="397.62,-178.37 387.03,-178.05 395.11,-184.91 397.62,-178.37"/>
</g>
<!-- left_wheel_link -->
<g id="node10" class="node">
<title>left_wheel_link</title>
<ellipse fill="none" stroke="black" cx="529.9" cy="-162" rx="79.09" ry="18"/>
<text text-anchor="middle" x="529.9" y="-158.3" font-family="Times,serif" font-size="14.00">left_wheel_link</text>
</g>
<!-- body_link&#45;&gt;left_wheel_link -->
<g id="edge9" class="edge">
<title>body_link&#45;&gt;left_wheel_link</title>
<path fill="none" stroke="black" d="M529.9,-215.7C529.9,-207.98 529.9,-198.71 529.9,-190.11"/>
<polygon fill="black" stroke="black" points="533.4,-190.1 529.9,-180.1 526.4,-190.1 533.4,-190.1"/>
</g>
<!-- right_wheel2_link -->
<g id="node11" class="node">
<title>right_wheel2_link</title>
<ellipse fill="none" stroke="black" cx="719.9" cy="-162" rx="92.88" ry="18"/>
<text text-anchor="middle" x="719.9" y="-158.3" font-family="Times,serif" font-size="14.00">right_wheel2_link</text>
</g>
<!-- body_link&#45;&gt;right_wheel2_link -->
<g id="edge10" class="edge">
<title>body_link&#45;&gt;right_wheel2_link</title>
<path fill="none" stroke="black" d="M565.19,-220C594.39,-209.24 636.26,-193.81 669.07,-181.72"/>
<polygon fill="black" stroke="black" points="670.33,-184.99 678.51,-178.25 667.91,-178.42 670.33,-184.99"/>
</g>
<!-- right_wheel_link -->
<g id="node12" class="node">
<title>right_wheel_link</title>
<ellipse fill="none" stroke="black" cx="917.9" cy="-162" rx="87.18" ry="18"/>
<text text-anchor="middle" x="917.9" y="-158.3" font-family="Times,serif" font-size="14.00">right_wheel_link</text>
</g>
<!-- body_link&#45;&gt;right_wheel_link -->
<g id="edge11" class="edge">
<title>body_link&#45;&gt;right_wheel_link</title>
<path fill="none" stroke="black" d="M576.7,-224.56C643.28,-212.54 766,-190.4 844.68,-176.21"/>
<polygon fill="black" stroke="black" points="845.31,-179.65 854.53,-174.43 844.07,-172.76 845.31,-179.65"/>
</g>
<!-- orin_link -->
<g id="node5" class="node">
<title>orin_link</title>
<ellipse fill="none" stroke="black" cx="178.9" cy="-90" rx="50.89" ry="18"/>
<text text-anchor="middle" x="178.9" y="-86.3" font-family="Times,serif" font-size="14.00">orin_link</text>
</g>
<!-- battery_link&#45;&gt;orin_link -->
<g id="edge5" class="edge">
<title>battery_link&#45;&gt;orin_link</title>
<path fill="none" stroke="black" d="M178.9,-143.7C178.9,-135.98 178.9,-126.71 178.9,-118.11"/>
<polygon fill="black" stroke="black" points="182.4,-118.1 178.9,-108.1 175.4,-118.1 182.4,-118.1"/>
</g>
<!-- d435_link -->
<g id="node6" class="node">
<title>d435_link</title>
<ellipse fill="none" stroke="black" cx="55.9" cy="-18" rx="55.79" ry="18"/>
<text text-anchor="middle" x="55.9" y="-14.3" font-family="Times,serif" font-size="14.00">d435_link</text>
</g>
<!-- orin_link&#45;&gt;d435_link -->
<g id="edge4" class="edge">
<title>orin_link&#45;&gt;d435_link</title>
<path fill="none" stroke="black" d="M153.11,-74.33C135.15,-64.1 110.97,-50.34 91.22,-39.1"/>
<polygon fill="black" stroke="black" points="92.92,-36.04 82.5,-34.14 89.46,-42.13 92.92,-36.04"/>
</g>
<!-- gps_link -->
<g id="node7" class="node">
<title>gps_link</title>
<ellipse fill="none" stroke="black" cx="178.9" cy="-18" rx="48.99" ry="18"/>
<text text-anchor="middle" x="178.9" y="-14.3" font-family="Times,serif" font-size="14.00">gps_link</text>
</g>
<!-- orin_link&#45;&gt;gps_link -->
<g id="edge6" class="edge">
<title>orin_link&#45;&gt;gps_link</title>
<path fill="none" stroke="black" d="M178.9,-71.7C178.9,-63.98 178.9,-54.71 178.9,-46.11"/>
<polygon fill="black" stroke="black" points="182.4,-46.1 178.9,-36.1 175.4,-46.1 182.4,-46.1"/>
</g>
<!-- lidar_link -->
<g id="node8" class="node">
<title>lidar_link</title>
<ellipse fill="none" stroke="black" cx="299.9" cy="-18" rx="53.89" ry="18"/>
<text text-anchor="middle" x="299.9" y="-14.3" font-family="Times,serif" font-size="14.00">lidar_link</text>
</g>
<!-- orin_link&#45;&gt;lidar_link -->
<g id="edge7" class="edge">
<title>orin_link&#45;&gt;lidar_link</title>
<path fill="none" stroke="black" d="M204.26,-74.33C221.97,-64.08 245.82,-50.28 265.28,-39.03"/>
<polygon fill="black" stroke="black" points="267.24,-41.93 274.15,-33.9 263.74,-35.87 267.24,-41.93"/>
</g>
<!-- Recorded at time: 1750723257.1775424 -->
<g id="node13" class="node">
<title>Recorded at time: 1750723257.1775424</title>
<text text-anchor="middle" x="529.9" y="-446.3" font-family="Times,serif" font-size="14.00">Recorded at time: 1750723257.1775424</text>
</g>
<!-- Recorded at time: 1750723257.1775424&#45;&gt;differential_drive_robot_4wheel/odom -->
</g>
</svg>
