<?xml version="1.0" encoding="UTF-8" standalone="no"?>
<!DOCTYPE svg PUBLIC "-//W3C//DTD SVG 1.1//EN"
 "http://www.w3.org/Graphics/SVG/1.1/DTD/svg11.dtd">
<!-- Generated by graphviz version 2.43.0 (0)
 -->
<!-- Title: G Pages: 1 -->
<svg width="1122pt" height="371pt"
 viewBox="0.00 0.00 1122.09 371.00" xmlns="http://www.w3.org/2000/svg" xmlns:xlink="http://www.w3.org/1999/xlink">
<g id="graph0" class="graph" transform="scale(1 1) rotate(0) translate(4 367)">
<title>G</title>
<polygon fill="white" stroke="transparent" points="-4,4 -4,-367 1118.09,-367 1118.09,4 -4,4"/>
<g id="clust1" class="cluster">
<title>cluster_legend</title>
<polygon fill="none" stroke="black" stroke-width="2" points="776.14,-280 776.14,-355 1098.14,-355 1098.14,-280 776.14,-280"/>
<text text-anchor="middle" x="937.14" y="-339.8" font-family="Times,serif" font-size="14.00">view_frames Result</text>
</g>
<!-- World -->
<g id="node1" class="node">
<title>World</title>
<ellipse fill="none" stroke="black" cx="937.14" cy="-234" rx="38.19" ry="18"/>
<text text-anchor="middle" x="937.14" y="-230.3" font-family="Times,serif" font-size="14.00">World</text>
</g>
<!-- battery_link -->
<g id="node2" class="node">
<title>battery_link</title>
<ellipse fill="none" stroke="black" cx="877.14" cy="-162" rx="66.09" ry="18"/>
<text text-anchor="middle" x="877.14" y="-158.3" font-family="Times,serif" font-size="14.00">battery_link</text>
</g>
<!-- World&#45;&gt;battery_link -->
<g id="edge1" class="edge">
<title>World&#45;&gt;battery_link</title>
<path fill="none" stroke="black" d="M923.53,-217.12C916.07,-208.42 906.67,-197.45 898.28,-187.66"/>
<polygon fill="black" stroke="black" points="900.71,-185.11 891.54,-179.8 895.39,-189.67 900.71,-185.11"/>
</g>
<!-- odom -->
<g id="node12" class="node">
<title>odom</title>
<ellipse fill="none" stroke="black" cx="1010.14" cy="-162" rx="36.29" ry="18"/>
<text text-anchor="middle" x="1010.14" y="-158.3" font-family="Times,serif" font-size="14.00">odom</text>
</g>
<!-- World&#45;&gt;odom -->
<g id="edge11" class="edge">
<title>World&#45;&gt;odom</title>
<path fill="none" stroke="black" d="M953.34,-217.46C963.08,-208.13 975.64,-196.09 986.47,-185.7"/>
<polygon fill="black" stroke="black" points="989.19,-187.94 993.99,-178.49 984.35,-182.89 989.19,-187.94"/>
</g>
<!-- body_link -->
<g id="node3" class="node">
<title>body_link</title>
<ellipse fill="none" stroke="black" cx="457.14" cy="-90" rx="54.69" ry="18"/>
<text text-anchor="middle" x="457.14" y="-86.3" font-family="Times,serif" font-size="14.00">body_link</text>
</g>
<!-- battery_link&#45;&gt;body_link -->
<g id="edge2" class="edge">
<title>battery_link&#45;&gt;body_link</title>
<path fill="none" stroke="black" d="M822.23,-151.85C742.59,-138.57 595.7,-114.09 514.63,-100.58"/>
<polygon fill="black" stroke="black" points="515.04,-97.1 504.6,-98.91 513.89,-104.01 515.04,-97.1"/>
</g>
<!-- orin_link -->
<g id="node4" class="node">
<title>orin_link</title>
<ellipse fill="none" stroke="black" cx="877.14" cy="-90" rx="50.89" ry="18"/>
<text text-anchor="middle" x="877.14" y="-86.3" font-family="Times,serif" font-size="14.00">orin_link</text>
</g>
<!-- battery_link&#45;&gt;orin_link -->
<g id="edge3" class="edge">
<title>battery_link&#45;&gt;orin_link</title>
<path fill="none" stroke="black" d="M877.14,-143.7C877.14,-135.98 877.14,-126.71 877.14,-118.11"/>
<polygon fill="black" stroke="black" points="880.64,-118.1 877.14,-108.1 873.64,-118.1 880.64,-118.1"/>
</g>
<!-- left_wheel2_link -->
<g id="node5" class="node">
<title>left_wheel2_link</title>
<ellipse fill="none" stroke="black" cx="85.14" cy="-18" rx="85.29" ry="18"/>
<text text-anchor="middle" x="85.14" y="-14.3" font-family="Times,serif" font-size="14.00">left_wheel2_link</text>
</g>
<!-- body_link&#45;&gt;left_wheel2_link -->
<g id="edge4" class="edge">
<title>body_link&#45;&gt;left_wheel2_link</title>
<path fill="none" stroke="black" d="M410.78,-80.28C346.94,-68.26 231.37,-46.52 156.48,-32.42"/>
<polygon fill="black" stroke="black" points="157.12,-28.98 146.65,-30.57 155.83,-35.86 157.12,-28.98"/>
</g>
<!-- left_wheel_link -->
<g id="node6" class="node">
<title>left_wheel_link</title>
<ellipse fill="none" stroke="black" cx="267.14" cy="-18" rx="79.09" ry="18"/>
<text text-anchor="middle" x="267.14" y="-14.3" font-family="Times,serif" font-size="14.00">left_wheel_link</text>
</g>
<!-- body_link&#45;&gt;left_wheel_link -->
<g id="edge5" class="edge">
<title>body_link&#45;&gt;left_wheel_link</title>
<path fill="none" stroke="black" d="M421.85,-76C392.16,-65.06 349.38,-49.3 316.32,-37.12"/>
<polygon fill="black" stroke="black" points="317.44,-33.8 306.84,-33.63 315.02,-40.37 317.44,-33.8"/>
</g>
<!-- right_wheel2_link -->
<g id="node7" class="node">
<title>right_wheel2_link</title>
<ellipse fill="none" stroke="black" cx="457.14" cy="-18" rx="92.88" ry="18"/>
<text text-anchor="middle" x="457.14" y="-14.3" font-family="Times,serif" font-size="14.00">right_wheel2_link</text>
</g>
<!-- body_link&#45;&gt;right_wheel2_link -->
<g id="edge6" class="edge">
<title>body_link&#45;&gt;right_wheel2_link</title>
<path fill="none" stroke="black" d="M457.14,-71.7C457.14,-63.98 457.14,-54.71 457.14,-46.11"/>
<polygon fill="black" stroke="black" points="460.64,-46.1 457.14,-36.1 453.64,-46.1 460.64,-46.1"/>
</g>
<!-- right_wheel_link -->
<g id="node8" class="node">
<title>right_wheel_link</title>
<ellipse fill="none" stroke="black" cx="655.14" cy="-18" rx="87.18" ry="18"/>
<text text-anchor="middle" x="655.14" y="-14.3" font-family="Times,serif" font-size="14.00">right_wheel_link</text>
</g>
<!-- body_link&#45;&gt;right_wheel_link -->
<g id="edge7" class="edge">
<title>body_link&#45;&gt;right_wheel_link</title>
<path fill="none" stroke="black" d="M493,-76.32C523.86,-65.41 568.78,-49.53 603.52,-37.25"/>
<polygon fill="black" stroke="black" points="604.76,-40.52 613.03,-33.89 602.43,-33.92 604.76,-40.52"/>
</g>
<!-- d435_link -->
<g id="node9" class="node">
<title>d435_link</title>
<ellipse fill="none" stroke="black" cx="816.14" cy="-18" rx="55.79" ry="18"/>
<text text-anchor="middle" x="816.14" y="-14.3" font-family="Times,serif" font-size="14.00">d435_link</text>
</g>
<!-- orin_link&#45;&gt;d435_link -->
<g id="edge8" class="edge">
<title>orin_link&#45;&gt;d435_link</title>
<path fill="none" stroke="black" d="M862.69,-72.41C855.09,-63.69 845.64,-52.85 837.24,-43.21"/>
<polygon fill="black" stroke="black" points="839.7,-40.71 830.49,-35.47 834.43,-45.31 839.7,-40.71"/>
</g>
<!-- gps_link -->
<g id="node10" class="node">
<title>gps_link</title>
<ellipse fill="none" stroke="black" cx="939.14" cy="-18" rx="48.99" ry="18"/>
<text text-anchor="middle" x="939.14" y="-14.3" font-family="Times,serif" font-size="14.00">gps_link</text>
</g>
<!-- orin_link&#45;&gt;gps_link -->
<g id="edge9" class="edge">
<title>orin_link&#45;&gt;gps_link</title>
<path fill="none" stroke="black" d="M891.84,-72.41C899.56,-63.69 909.17,-52.85 917.7,-43.21"/>
<polygon fill="black" stroke="black" points="920.54,-45.28 924.55,-35.47 915.3,-40.64 920.54,-45.28"/>
</g>
<!-- lidar_link -->
<g id="node11" class="node">
<title>lidar_link</title>
<ellipse fill="none" stroke="black" cx="1060.14" cy="-18" rx="53.89" ry="18"/>
<text text-anchor="middle" x="1060.14" y="-14.3" font-family="Times,serif" font-size="14.00">lidar_link</text>
</g>
<!-- orin_link&#45;&gt;lidar_link -->
<g id="edge10" class="edge">
<title>orin_link&#45;&gt;lidar_link</title>
<path fill="none" stroke="black" d="M910.28,-76.32C939.97,-64.97 983.71,-48.24 1016.29,-35.78"/>
<polygon fill="black" stroke="black" points="1017.92,-38.9 1026.01,-32.06 1015.42,-32.36 1017.92,-38.9"/>
</g>
<!-- base_footprint -->
<g id="node13" class="node">
<title>base_footprint</title>
<ellipse fill="none" stroke="black" cx="1023.14" cy="-90" rx="77.19" ry="18"/>
<text text-anchor="middle" x="1023.14" y="-86.3" font-family="Times,serif" font-size="14.00">base_footprint</text>
</g>
<!-- odom&#45;&gt;base_footprint -->
<g id="edge12" class="edge">
<title>odom&#45;&gt;base_footprint</title>
<path fill="none" stroke="black" d="M1013.29,-144.05C1014.72,-136.35 1016.45,-127.03 1018.06,-118.36"/>
<polygon fill="black" stroke="black" points="1021.55,-118.75 1019.93,-108.28 1014.67,-117.47 1021.55,-118.75"/>
</g>
<!-- Recorded at time: 1750723452.0051835 -->
<g id="node14" class="node">
<title>Recorded at time: 1750723452.0051835</title>
<text text-anchor="middle" x="937.14" y="-302.3" font-family="Times,serif" font-size="14.00">Recorded at time: 1750723452.0051835</text>
</g>
<!-- Recorded at time: 1750723452.0051835&#45;&gt;World -->
</g>
</svg>
